<svg xmlns="http://www.w3.org/2000/svg" viewBox="0 0 81.64 59.83"><defs><style>.cls-1{fill:none;stroke:#000;stroke-linejoin:round;stroke-width:3px;}</style></defs><title>Asset 3</title><g id="Layer_2" data-name="Layer 2"><g id="Layer_2-2" data-name="Layer 2"><polygon class="cls-1" points="30.52 31.36 30.52 37.4 30.52 43.44 40.82 37.4 30.52 31.36"/><circle class="cls-1" cx="33.96" cy="37.4" r="13.44"/><rect class="cls-1" x="1.5" y="16.47" width="64.92" height="41.85" rx="2.7"/><path class="cls-1" d="M66.42,50.84h4.16a2.7,2.7,0,0,0,2.7-2.7V11.68A2.69,2.69,0,0,0,70.58,9H11.06a2.68,2.68,0,0,0-2.69,2.69v4.79"/><path class="cls-1" d="M15.22,9V4.2a2.7,2.7,0,0,1,2.7-2.7H77.44a2.7,2.7,0,0,1,2.7,2.7V40.66a2.7,2.7,0,0,1-2.7,2.7H73.28"/></g></g></svg>