<svg xmlns="http://www.w3.org/2000/svg" viewBox="0 0 93.5 66.09"><defs><style>.cls-1,.cls-2{fill:none;stroke:#000;stroke-linejoin:round;stroke-width:3px;}.cls-2{stroke-linecap:round;}</style></defs><title>Asset 2</title><g id="Layer_2" data-name="Layer 2"><g id="Layer_2-2" data-name="Layer 2"><path class="cls-1" d="M9.32,31.59h8.6a2.22,2.22,0,0,1,2.22,2.22V55.89a0,0,0,0,1,0,0h-13a0,0,0,0,1,0,0V33.81A2.22,2.22,0,0,1,9.32,31.59Z"/><path class="cls-1" d="M31.41,21.59H40a2.22,2.22,0,0,1,2.22,2.22V55.89a0,0,0,0,1,0,0h-13a0,0,0,0,1,0,0V23.81A2.22,2.22,0,0,1,31.41,21.59Z"/><path class="cls-1" d="M53.5,29.59h8.6a2.22,2.22,0,0,1,2.22,2.22V55.89a0,0,0,0,1,0,0h-13a0,0,0,0,1,0,0V31.81A2.22,2.22,0,0,1,53.5,29.59Z"/><path class="cls-1" d="M75.59,39.59h8.6a2.22,2.22,0,0,1,2.22,2.22V55.89a0,0,0,0,1,0,0h-13a0,0,0,0,1,0,0V41.81A2.22,2.22,0,0,1,75.59,39.59Z"/><rect class="cls-1" x="1.5" y="55.89" width="90.5" height="8.69" rx="2.22"/><line class="cls-2" x1="7.09" y1="24.89" x2="20.14" y2="24.89"/><line class="cls-2" x1="7.09" y1="18.2" x2="20.14" y2="18.2"/><line class="cls-2" x1="29.18" y1="14.89" x2="42.23" y2="14.89"/><line class="cls-2" x1="29.18" y1="8.2" x2="42.23" y2="8.2"/><line class="cls-2" x1="29.18" y1="1.5" x2="42.23" y2="1.5"/><line class="cls-2" x1="51.28" y1="22.89" x2="64.32" y2="22.89"/><line class="cls-2" x1="51.28" y1="16.2" x2="64.32" y2="16.2"/><line class="cls-2" x1="51.28" y1="9.5" x2="64.32" y2="9.5"/><line class="cls-2" x1="73.37" y1="32.89" x2="86.41" y2="32.89"/><line class="cls-2" x1="73.37" y1="26.2" x2="86.41" y2="26.2"/></g></g></svg>